<?xml version="1.0" encoding="UTF-8" standalone="no"?>
<svg
   xmlns:dc="http://purl.org/dc/elements/1.1/"
   xmlns:cc="http://creativecommons.org/ns#"
   xmlns:rdf="http://www.w3.org/1999/02/22-rdf-syntax-ns#"
   xmlns:svg="http://www.w3.org/2000/svg"
   xmlns="http://www.w3.org/2000/svg"
   xmlns:sodipodi="http://sodipodi.sourceforge.net/DTD/sodipodi-0.dtd"
   xmlns:inkscape="http://www.inkscape.org/namespaces/inkscape"
   id="svg4206"
   viewBox="0 0 266 60"
   height="60"
   width="266"
   version="1.1"
   sodipodi:docname="Consulting.svg"
   inkscape:version="0.92.4 (5da689c313, 2019-01-14)">
  <metadata
     id="metadata12">
    <rdf:RDF>
      <cc:Work
         rdf:about="">
        <dc:format>image/svg+xml</dc:format>
        <dc:type
           rdf:resource="http://purl.org/dc/dcmitype/StillImage" />
      </cc:Work>
    </rdf:RDF>
  </metadata>
  <defs
     id="defs10" />
  <sodipodi:namedview
     pagecolor="#ffffff"
     bordercolor="#666666"
     borderopacity="1"
     objecttolerance="10"
     gridtolerance="10"
     guidetolerance="10"
     inkscape:pageopacity="0"
     inkscape:pageshadow="2"
     inkscape:window-width="3840"
     inkscape:window-height="2137"
     id="namedview8"
     showgrid="false"
     inkscape:zoom="8.5413534"
     inkscape:cx="248.09199"
     inkscape:cy="-44.599589"
     inkscape:window-x="-8"
     inkscape:window-y="-8"
     inkscape:window-maximized="1"
     inkscape:current-layer="layer2" />
  <g
     id="layer2">
    <path
       class="st0"
       id="polygon4771"
       fill="#7e00ff"
       d="M79.7 20.182v-4.19l7.877-2.933L79.7 10.04V5.935l13.492 5.447v3.353z" />
    <path
       class="st0"
       d="M146.66 41.888c-3.94 0-6.872-2.682-6.872-7.124V32.92c0-4.44 3.017-7.207 6.79-7.207 3.1 0 5.78 1.425 6.116 5.196h-2.262c-.252-2.515-1.928-3.353-3.94-3.353-2.597 0-4.44 2.01-4.44 5.364v1.844c0 3.52 1.843 5.28 4.525 5.28 2.01 0 3.855-1.173 4.022-3.77h2.094c-.083 3.435-2.598 5.614-6.034 5.614zm8.297-7.207v-1.843c0-4.274 2.933-7.208 6.872-7.208 4.022 0 6.87 2.85 6.87 7.207v1.844c0 4.358-2.848 7.208-6.87 7.208-4.023 0-6.873-2.933-6.873-7.207zm11.482 0v-1.843c0-3.352-1.76-5.364-4.527-5.364-2.85 0-4.61 2.095-4.61 5.364v1.844c0 3.27 1.76 5.28 4.61 5.28 2.766.084 4.526-2.01 4.526-5.28zm5.362-8.8h2.263v2.347c.67-1.424 2.263-2.598 4.61-2.598 2.932 0 5.028 1.676 5.028 5.782v10.224h-2.263V31.244c0-2.514-1.09-3.687-3.352-3.687-2.18 0-4.023 1.425-4.023 4.023v10.14h-2.263V25.88zm20.45 16.008c-3.52 0-5.784-1.928-5.868-5.03h2.263c.084 1.93 1.257 3.102 3.604 3.102 2.264 0 3.27-.838 3.27-2.598 0-1.676-1.174-2.262-3.52-2.85-3.688-1.005-5.197-2.094-5.197-4.692 0-2.766 2.598-4.274 5.113-4.274 2.765 0 5.112 1.173 5.363 4.525h-2.264c-.25-1.76-1.34-2.597-3.184-2.597-1.76 0-2.933.922-2.933 2.263 0 1.508.92 2.01 3.602 2.766 3.017.754 5.112 1.592 5.112 4.777 0 2.764-1.76 4.608-5.363 4.608zm19.86-.252h-2.262V39.29c-.67 1.425-2.263 2.598-4.525 2.598-2.934 0-4.945-1.592-4.945-5.53V25.88h2.263v10.393c0 2.598 1.09 3.687 3.268 3.687 2.096 0 3.94-1.424 3.94-3.94V25.88h2.263v15.756zm3.856-22.88h2.346V41.72h-2.346V18.757zm9.22 3.605v3.52h3.435v1.928h-3.436v9.89c0 1.508.67 2.262 1.843 2.262.67 0 1.257-.084 1.676-.25v1.926c-.42.168-1.005.336-1.843.336-2.682 0-4.023-1.51-4.023-3.94V27.977h-2.095V26.05h2.095v-3.52h2.347zm6.116-1.088c0-.838.67-1.51 1.51-1.51.837 0 1.507.672 1.507 1.51s-.67 1.508-1.507 1.508c-.838 0-1.51-.67-1.51-1.508zm.336 4.61h2.262v15.754h-2.262V25.88zm6.117 0h2.263v2.345c.67-1.424 2.263-2.598 4.61-2.598 2.933 0 5.028 1.676 5.028 5.782v10.224h-2.263V31.244c0-2.514-1.09-3.687-3.352-3.687-2.18 0-4.023 1.425-4.023 4.023v10.14h-2.263V25.88zM259.297 47c-4.192 0-6.12-1.928-6.455-4.526h2.263c.335 1.76 1.676 2.598 4.107 2.598 2.765 0 4.525-1.34 4.525-4.525v-2.263c-.838 1.51-2.682 2.85-4.86 2.85-3.688 0-6.286-2.682-6.286-6.79v-1.76c0-4.02 2.6-7.038 6.454-7.038 2.43 0 3.855 1.173 4.693 2.68v-2.43H266v14.835c0 4.36-2.682 6.37-6.704 6.37zm4.524-12.739v-1.59c0-3.27-1.675-5.113-4.44-5.113-2.766 0-4.442 2.01-4.442 5.028v1.844c0 3.184 1.843 4.944 4.274 4.944 2.682-.084 4.61-1.928 4.61-5.113z"
       id="path4775"
       fill="#7e00ff" />
  </g>
  <style
     id="style4767">.st0{fill:#7E00FF;}</style>
</svg>
