<?xml version="1.0" encoding="UTF-8" standalone="no"?>
<svg
   xmlns:dc="http://purl.org/dc/elements/1.1/"
   xmlns:cc="http://creativecommons.org/ns#"
   xmlns:rdf="http://www.w3.org/1999/02/22-rdf-syntax-ns#"
   xmlns:svg="http://www.w3.org/2000/svg"
   xmlns="http://www.w3.org/2000/svg"
   xmlns:sodipodi="http://sodipodi.sourceforge.net/DTD/sodipodi-0.dtd"
   xmlns:inkscape="http://www.inkscape.org/namespaces/inkscape"
   width="206"
   height="60"
   viewBox="0 0 206 60.000001"
   id="svg2"
   version="1.1"
   inkscape:version="0.92.4 (5da689c313, 2019-01-14)"
   sodipodi:docname="Digital.svg">
  <metadata
     id="metadata28">
    <rdf:RDF>
      <cc:Work
         rdf:about="">
        <dc:format>image/svg+xml</dc:format>
        <dc:type
           rdf:resource="http://purl.org/dc/dcmitype/StillImage" />
      </cc:Work>
    </rdf:RDF>
  </metadata>
  <sodipodi:namedview
     pagecolor="#ffffff"
     bordercolor="#666666"
     borderopacity="1"
     objecttolerance="10"
     gridtolerance="10"
     guidetolerance="10"
     inkscape:pageopacity="0"
     inkscape:pageshadow="2"
     inkscape:window-width="3840"
     inkscape:window-height="2137"
     id="namedview26"
     showgrid="false"
     inkscape:zoom="7.908612"
     inkscape:cx="131.49007"
     inkscape:cy="-14.180199"
     inkscape:window-x="-8"
     inkscape:window-y="-8"
     inkscape:window-maximized="1"
     inkscape:current-layer="g4409" />
  <defs
     id="defs4">
    <style
       id="style4236">.cls-1{fill:#ff9500;}</style>
  </defs>
  <g
     id="layer2">
    <g
       id="g4409">
      <path
         id="polygon4368"
         class="st0"
         fill="#ffd42e"
         d="M77.34 15.91l7.646-2.847-7.645-2.928V6.15l13.095 5.286v3.253L77.34 19.975z" />
      <path
         id="path4388"
         d="M148.746 40.795h-2.196v-2.52c-.976 1.707-2.846 2.683-4.798 2.764-3.578 0-6.1-2.44-6.1-6.832v-1.952c0-4.23 2.522-7.076 6.263-7.076 1.87-.08 3.66.895 4.554 2.603v-9.19h2.195l.08 22.202zm-2.114-8.54c0-3.415-1.627-5.204-4.31-5.204-2.684 0-4.31 1.87-4.31 5.206v1.952c0 3.415 1.788 5.042 4.065 5.042 2.603 0 4.555-1.708 4.555-5.205v-1.79z"
         class="st0"
         fill="#ffd42e" />
      <path
         id="path4390"
         d="M152.162 21.033c0-.813.65-1.464 1.464-1.464.813 0 1.464.65 1.464 1.463 0 .813-.65 1.464-1.464 1.464s-1.464-.65-1.464-1.464zm.325 4.473h2.196v15.29h-2.196v-15.29z"
         class="st0"
         fill="#ffd42e" />
      <path
         id="path4392"
         d="M164.198 46c-4.066 0-5.937-1.87-6.262-4.392h2.196c.325 1.708 1.626 2.52 3.985 2.52 2.684 0 4.39-1.3 4.39-4.39v-2.196c-.974 1.708-2.764 2.684-4.715 2.765-3.58 0-6.1-2.602-6.1-6.587v-1.708c0-3.904 2.52-6.832 6.262-6.832 1.87-.08 3.66.895 4.554 2.603v-2.36h2.196v14.478c0 4.148-2.602 6.1-6.506 6.1zm4.392-12.362v-1.545c0-3.172-1.627-4.96-4.31-4.96-2.684 0-4.23 1.95-4.23 4.88V33.8c0 3.09 1.79 4.8 4.148 4.8 2.52-.082 4.392-1.87 4.392-4.962z"
         class="st0"
         fill="#ffd42e" />
      <path
         id="path4394"
         d="M174.2 21.033c0-.813.652-1.464 1.465-1.464.813 0 1.464.65 1.464 1.463 0 .813-.652 1.464-1.465 1.464-.813 0-1.464-.65-1.464-1.464zm.408 4.473h2.196v15.29h-2.196v-15.29z"
         class="st0"
         fill="#ffd42e" />
      <path
         id="path4396"
         d="M183.473 22.09v3.416h3.253v1.87h-3.253v9.597c0 1.464.65 2.196 1.79 2.196.568 0 1.137-.083 1.625-.245v1.87c-.57.244-1.22.325-1.79.325-2.6 0-3.903-1.463-3.903-3.822v-9.76h-2.033v-1.87h2.033v-3.415l2.278-.163z"
         class="st0"
         fill="#ffd42e" />
      <path
         id="path4398"
         d="M193.557 41.04c-2.765 0-4.717-1.465-4.717-4.393v-.162c0-3.416 3.172-4.554 6.832-4.554h2.195v-1.463c0-2.278-.813-3.335-3.01-3.335-1.95 0-3.008.895-3.252 2.684h-2.196c.243-3.253 2.683-4.473 5.53-4.473 2.846 0 5.123 1.3 5.123 5.124v10.41h-2.196v-1.87c-1.057 1.3-2.683 2.113-4.31 2.032zm4.31-5.206v-2.358h-2.114c-2.765 0-4.636.732-4.636 3.01v.16c0 1.628.814 2.685 2.765 2.685 2.277 0 3.985-1.22 3.985-3.496z"
         class="st0"
         fill="#ffd42e" />
      <path
         id="path4400"
         d="M203.723 18.593H206v22.283h-2.277V18.593z"
         class="st0"
         fill="#ffd42e" />
    </g>
  </g>
  <style
     id="style4299">.st0{fill:#FFD42E;} .st1{fill:#FFFFFF;}</style>
  <style
     id="style4364">.st0{fill:#FFD42E;} .st1{fill:#FFFFFF;}</style>
</svg>
