<?xml version="1.0" encoding="UTF-8" standalone="no"?>
<svg
   xmlns:dc="http://purl.org/dc/elements/1.1/"
   xmlns:cc="http://creativecommons.org/ns#"
   xmlns:rdf="http://www.w3.org/1999/02/22-rdf-syntax-ns#"
   xmlns:svg="http://www.w3.org/2000/svg"
   xmlns="http://www.w3.org/2000/svg"
   xmlns:sodipodi="http://sodipodi.sourceforge.net/DTD/sodipodi-0.dtd"
   xmlns:inkscape="http://www.inkscape.org/namespaces/inkscape"
   width="261"
   height="60"
   viewBox="0 0 261 60.000001"
   id="svg2"
   version="1.1"
   sodipodi:docname="Operations.svg"
   inkscape:version="0.92.4 (5da689c313, 2019-01-14)">
  <metadata
     id="metadata19">
    <rdf:RDF>
      <cc:Work
         rdf:about="">
        <dc:format>image/svg+xml</dc:format>
        <dc:type
           rdf:resource="http://purl.org/dc/dcmitype/StillImage" />
      </cc:Work>
    </rdf:RDF>
  </metadata>
  <sodipodi:namedview
     pagecolor="#ffffff"
     bordercolor="#666666"
     borderopacity="1"
     objecttolerance="10"
     gridtolerance="10"
     guidetolerance="10"
     inkscape:pageopacity="0"
     inkscape:pageshadow="2"
     inkscape:window-width="3840"
     inkscape:window-height="2137"
     id="namedview17"
     showgrid="false"
     inkscape:zoom="8.7049808"
     inkscape:cx="81.026077"
     inkscape:cy="-18.994919"
     inkscape:window-x="-8"
     inkscape:window-y="-8"
     inkscape:window-maximized="1"
     inkscape:current-layer="g4192" />
  <defs
     id="defs4">
    <style
       id="style4236">.cls-1{fill:#ff9500;}</style>
    <clipPath
       id="clipPath4526">
      <path
         d="M0 792h612V0H0v792z"
         id="path4528" />
    </clipPath>
    <clipPath
       id="clipPath4610">
      <path
         d="M0 792h612V0H0v792z"
         id="path4612" />
    </clipPath>
  </defs>
  <g
     id="layer1">
    <g
       id="g4192">
      <path
         id="polygon4179"
         class="st0"
         fill="#00baff"
         d="M77.1 11.3V7.4l13.1 5.2v3.3l-13.1 5.3v-4.1l7.7-2.8z" />
      <path
         id="path4183"
         d="M135.4 35.2v-1.8c0-4.2 2.8-7 6.7-7 3.9 0 6.7 2.7 6.7 7v1.8c0 4.2-2.8 7-6.7 7-4 0-6.7-2.9-6.7-7zm11.1 0v-1.8c0-3.2-1.7-5.2-4.4-5.2s-4.4 2-4.4 5.2v1.8c0 3.1 1.7 5.1 4.4 5.1 2.7.1 4.4-1.9 4.4-5.1zm7.4-8.5v2.4c1-1.7 2.8-2.7 4.8-2.7 3.5 0 6.1 2.5 6.1 6.8v2c0 4.2-2.4 7-6.1 7-1.9.1-3.8-.9-4.7-2.6V47h-2.2V26.7h2.1zm4.4 13.7c2.7 0 4.2-1.8 4.2-5.1v-1.9c0-3.4-1.8-5.1-4.2-5.1-2.5 0-4.4 1.7-4.4 5.2v1.8c-.1 3.4 1.7 5.1 4.4 5.1zm15.2 1.8c-3.9 0-6.6-2.7-6.6-7v-1.8c0-4.2 2.6-7 6.4-7 3.3 0 6.1 2 6.1 6.8v1.5h-10.3v.5c0 3.4 1.5 5.2 4.3 5.2 2.2 0 3.4-.9 3.7-2.7h2.2c-.3 3-2.6 4.5-5.8 4.5zm-4.3-9.3h8.1v-.3c-.1-3.1-1.6-4.3-3.9-4.3s-4 1.4-4.2 4.6zm13.2-6.2h2.2v2.6c.8-1.8 2.6-2.9 4.6-2.8v2c-2.8.1-4.6 1.1-4.6 4.5v9h-2.1l-.1-15.3zm12.9 15.5c-2.7 0-4.7-1.4-4.7-4.3v-.2c0-3.4 3.2-4.6 6.8-4.6h2.2v-1.5c0-2.3-.8-3.3-3-3.3-2 0-3 .9-3.2 2.7h-2.2c.2-3.2 2.7-4.5 5.5-4.5s5.1 1.3 5.1 5.1V42h-2.2v-1.9c-1 1.4-2.6 2.2-4.3 2.1zm4.3-5.2v-2.3h-2.2c-2.7 0-4.6.8-4.6 3v.1c0 1.7.8 2.7 2.8 2.7 2.3 0 4-1.2 4-3.5zm8.6-13.7v3.4h3.3v1.9h-3.3v9.5c0 1.5.6 2.2 1.8 2.2.6 0 1.1-.1 1.6-.3v1.8c-.6.2-1.2.3-1.8.3-2.6 0-3.9-1.5-3.9-3.8v-9.7h-2v-1.9h2v-3.4h2.3zm6-1.1c0-.8.7-1.4 1.5-1.4s1.4.7 1.4 1.5-.7 1.4-1.5 1.4-1.4-.7-1.4-1.5zm.3 4.5h2.2V42h-2.2V26.7zm5.2 8.5v-1.8c0-4.2 2.8-7 6.7-7 3.9 0 6.7 2.7 6.7 7v1.8c0 4.2-2.8 7-6.7 7-3.9 0-6.7-2.9-6.7-7zm11.1 0v-1.8c0-3.2-1.7-5.2-4.4-5.2s-4.4 2-4.4 5.2v1.8c0 3.1 1.7 5.1 4.4 5.1 2.8.1 4.4-1.9 4.4-5.1zm5.2-8.5h2.2V29c.9-1.6 2.6-2.6 4.5-2.5 2.9 0 4.9 1.6 4.9 5.6V42h-2.2V32c0-2.4-1-3.6-3.2-3.6-2-.1-3.8 1.5-3.9 3.5V42H236V26.7zm19.7 15.5c-3.4 0-5.6-1.8-5.7-4.9h2.2c.1 1.8 1.2 3 3.5 3s3.2-.8 3.2-2.5-1.1-2.2-3.4-2.8c-3.6-.9-5-2-5-4.6 0-2.7 2.5-4.1 4.9-4.1 2.7 0 4.9 1.2 5.2 4.3h-2.1c-.3-1.7-1.3-2.5-3.1-2.5s-2.9.9-2.9 2.2c0 1.3.9 2 3.5 2.7 3 .8 5 1.6 5 4.6 0 2.9-1.7 4.6-5.3 4.6z"
         class="st0"
         fill="#00baff" />
    </g>
  </g>
  <style
     id="style4299">.st0{fill:#FFD42E;} .st1{fill:#FFFFFF;}</style>
  <style
     id="style4364">.st0{fill:#FFD42E;} .st1{fill:#FFFFFF;}</style>
  <style
     id="style4175">.st0{fill:#00BAFF;}</style>
</svg>
