<?xml version="1.0" encoding="UTF-8" standalone="no"?>
<svg
   xmlns:dc="http://purl.org/dc/elements/1.1/"
   xmlns:cc="http://creativecommons.org/ns#"
   xmlns:rdf="http://www.w3.org/1999/02/22-rdf-syntax-ns#"
   xmlns:svg="http://www.w3.org/2000/svg"
   xmlns="http://www.w3.org/2000/svg"
   xmlns:sodipodi="http://sodipodi.sourceforge.net/DTD/sodipodi-0.dtd"
   xmlns:inkscape="http://www.inkscape.org/namespaces/inkscape"
   viewBox="0 0 225 60"
   width="225"
   height="60"
   version="1.1"
   id="svg10"
   sodipodi:docname="Accenture-Strategy.svg"
   inkscape:version="0.92.4 (5da689c313, 2019-01-14)">
  <metadata
     id="metadata16">
    <rdf:RDF>
      <cc:Work
         rdf:about="">
        <dc:format>image/svg+xml</dc:format>
        <dc:type
           rdf:resource="http://purl.org/dc/dcmitype/StillImage" />
      </cc:Work>
    </rdf:RDF>
  </metadata>
  <defs
     id="defs14" />
  <sodipodi:namedview
     pagecolor="#ffffff"
     bordercolor="#666666"
     borderopacity="1"
     objecttolerance="10"
     gridtolerance="10"
     guidetolerance="10"
     inkscape:pageopacity="0"
     inkscape:pageshadow="2"
     inkscape:window-width="3840"
     inkscape:window-height="2137"
     id="namedview12"
     showgrid="false"
     inkscape:zoom="1.2622222"
     inkscape:cx="112.5"
     inkscape:cy="30"
     inkscape:window-x="-8"
     inkscape:window-y="-8"
     inkscape:window-maximized="1"
     inkscape:current-layer="svg10" />
  <title
     id="title2">Acc_Strategy_Lockup_BLK_RGB</title>
  <path
     fill="red"
     d="M87.63 12.996v3.175L74.955 21.31V17.36l7.398-2.75-7.398-2.89V7.89"
     id="path4" />
  <path
     d="M136.723 41.698c-3.348 0-5.444-1.788-5.515-4.727h2.096c.11 1.79 1.166 2.948 3.404 2.948s3.088-.788 3.088-2.41c0-1.624-1.103-2.097-3.348-2.696-3.46-.906-4.853-1.954-4.853-4.428 0-2.608 2.466-4.002 4.79-4.002 2.584 0 4.79 1.135 5.05 4.223h-2.04c-.253-1.67-1.277-2.466-3.01-2.466-1.734 0-2.782.85-2.782 2.158 0 1.308.882 1.93 3.404 2.584 2.868.74 4.822 1.528 4.822 4.483 0 2.63-1.703 4.333-5.107 4.333zm10.605-18.35v3.293h3.207v1.813h-3.207v9.273c0 1.442.6 2.096 1.757 2.096.537.02 1.072-.066 1.576-.252v1.788c-.563.2-1.158.295-1.756.284-2.52 0-3.742-1.45-3.742-3.71v-9.455h-1.93v-1.812h1.954v-3.293l2.142-.024zm6.043 3.294h2.128v2.52c.795-1.74 2.57-2.82 4.483-2.725v1.985c-2.725.142-4.482 1.048-4.482 4.34v8.707h-2.127V26.64zm12.568 15.056c-2.64 0-4.57-1.387-4.57-4.223v-.19c0-3.316 3.065-4.45 6.58-4.45h2.158v-1.45c0-2.214-.788-3.207-2.923-3.207-1.9 0-2.947.85-3.15 2.584h-2.128c.23-3.15 2.608-4.365 5.334-4.365 2.725 0 4.963 1.245 4.963 4.987v10.07h-2.127v-1.805c-.923 1.364-2.495 2.143-4.138 2.048zm4.167-5.02V34.41h-2.096c-2.664 0-4.508.74-4.508 2.89v.143c0 1.615.788 2.584 2.695 2.584 2.246-.007 3.908-1.165 3.908-3.348zm8.368-13.33v3.293h3.207v1.813h-3.207v9.273c0 1.442.6 2.096 1.757 2.096.537.02 1.072-.066 1.576-.252v1.788c-.564.2-1.16.295-1.757.284-2.522 0-3.743-1.45-3.743-3.71v-9.455h-1.954v-1.812h1.97v-3.293l2.15-.024zm11.432 18.35c-3.798 0-6.382-2.584-6.382-6.752v-1.733c0-4.113 2.52-6.807 6.208-6.807 3.23 0 5.957 1.93 5.957 6.61v1.418h-9.974v.49c0 3.316 1.473 5.018 4.223 5.018 2.096 0 3.317-.906 3.6-2.64h2.097c-.402 2.923-2.608 4.396-5.728 4.396zm-4.2-8.99h7.824v-.315c-.088-3.01-1.577-4.223-3.8-4.223-2.22 0-3.82 1.418-4.017 4.538h-.008zM204.11 46.52c-3.94 0-5.728-1.812-6.043-4.223h2.16c.283 1.647 1.575 2.442 3.86 2.442 2.608 0 4.223-1.277 4.223-4.224V38.39c-.953 1.624-2.686 2.634-4.57 2.662-3.46 0-5.9-2.52-5.9-6.382V33c0-3.774 2.465-6.58 6.066-6.58 1.83-.08 3.543.9 4.396 2.522v-2.3h2.127v13.984c.015 3.987-2.593 5.893-6.312 5.893h-.008zm4.223-12.023V32.97c0-3.034-1.576-4.79-4.168-4.79s-4.136 1.874-4.136 4.726v1.702c0 3.01 1.732 4.625 4 4.625 2.5.024 4.31-1.702 4.31-4.735h-.007zM219 37.42l3.806-10.786h2.214l-7.343 19.65h-2.16l2.365-6.304-5.247-13.394h2.293L219 37.42z"
     fill="red"
     id="path8" />
</svg>
