<?xml version="1.0" encoding="UTF-8" standalone="no"?>
<svg
   xmlns:dc="http://purl.org/dc/elements/1.1/"
   xmlns:cc="http://creativecommons.org/ns#"
   xmlns:rdf="http://www.w3.org/1999/02/22-rdf-syntax-ns#"
   xmlns:svg="http://www.w3.org/2000/svg"
   xmlns="http://www.w3.org/2000/svg"
   xmlns:sodipodi="http://sodipodi.sourceforge.net/DTD/sodipodi-0.dtd"
   xmlns:inkscape="http://www.inkscape.org/namespaces/inkscape"
   viewBox="0 0 266 60"
   width="266"
   height="60"
   version="1.1"
   id="svg10"
   sodipodi:docname="Technology.svg"
   inkscape:version="0.92.4 (5da689c313, 2019-01-14)">
  <metadata
     id="metadata16">
    <rdf:RDF>
      <cc:Work
         rdf:about="">
        <dc:format>image/svg+xml</dc:format>
        <dc:type
           rdf:resource="http://purl.org/dc/dcmitype/StillImage" />
      </cc:Work>
    </rdf:RDF>
  </metadata>
  <defs
     id="defs14" />
  <sodipodi:namedview
     pagecolor="#ffffff"
     bordercolor="#666666"
     borderopacity="1"
     objecttolerance="10"
     gridtolerance="10"
     guidetolerance="10"
     inkscape:pageopacity="0"
     inkscape:pageshadow="2"
     inkscape:window-width="3840"
     inkscape:window-height="2137"
     id="namedview12"
     showgrid="false"
     inkscape:zoom="17.082707"
     inkscape:cx="21.915368"
     inkscape:cy="-0.74520352"
     inkscape:window-x="-8"
     inkscape:window-y="-8"
     inkscape:window-maximized="1"
     inkscape:current-layer="svg10" />
  <title
     id="title2">Acc_Technology_Lockup_BLK</title>
  <path
     fill="#00D700"
     d="M76.59 17.208l7.535-2.8-7.535-2.945v-3.9l12.912 5.2v3.234L76.59 21.22"
     id="path4" />
  <path
     d="M137.776 23.307v3.354h3.266v1.847h-3.266v9.445c0 1.468.61 2.134 1.79 2.134.546.02 1.09-.067 1.604-.257v1.845c-.574.203-1.18.3-1.79.29-2.567 0-3.81-1.477-3.81-3.78v-9.63h-1.983V26.71h1.99v-3.354l2.2-.05zm11.644 18.69c-3.868 0-6.5-2.633-6.5-6.878v-1.766c0-4.19 2.568-6.933 6.323-6.933 3.29 0 6.066 1.967 6.066 6.733v1.444H145.14v.49c0 3.377 1.5 5.11 4.3 5.11 2.135 0 3.38-.922 3.668-2.687h2.134c-.4 2.977-2.656 4.478-5.834 4.478l.01.008zm-4.277-9.15h7.968v-.32c-.087-3.065-1.604-4.3-3.867-4.3s-3.94 1.41-4.1 4.62zm18.92 9.157c-3.787 0-6.587-2.544-6.587-6.845v-1.79c0-4.245 2.89-6.933 6.5-6.933 2.945 0 5.545 1.356 5.89 5h-2.134c-.257-2.408-1.846-3.21-3.755-3.21-2.488 0-4.277 1.91-4.277 5.143v1.79c0 3.353 1.765 5.054 4.365 5.054 2.018.115 3.747-1.427 3.862-3.444.003-.056.005-.11.006-.167h2.022c-.125 3.1-2.74 5.51-5.838 5.387-.017 0-.034 0-.052-.002v.016zm8.667-22.18h2.167v9.124c.866-1.632 2.6-2.612 4.446-2.512 2.833 0 4.815 1.605 4.815 5.545v9.79h-2.2v-9.95c0-2.406-1.01-3.554-3.21-3.554-2.017-.104-3.737 1.448-3.84 3.466-.007.115-.007.23-.002.345v9.677h-2.167l-.01-21.93zm14.91 6.845h2.167v2.278c.864-1.635 2.6-2.618 4.446-2.52 2.833 0 4.815 1.605 4.815 5.545v9.79h-2.2V31.82c0-2.406-1.01-3.554-3.21-3.554-2.017-.104-3.737 1.448-3.84 3.466-.007.115-.007.23-.002.345v9.677h-2.167l-.01-15.085zm14.187 8.465V33.33c0-4.133 2.776-6.9 6.612-6.9s6.587 2.71 6.587 6.876v1.79c0 4.188-2.744 6.9-6.612 6.9s-6.596-2.833-6.596-6.877l.007.015zm10.977 0V33.37c0-3.21-1.7-5.144-4.365-5.144s-4.39 1.99-4.39 5.112v1.79c0 3.088 1.645 5.086 4.39 5.086 2.743 0 4.356-2.006 4.356-5.095l.008.015zm5.2-15.31h2.223v21.954h-2.223V19.823zm5.2 15.31V33.33c0-4.133 2.768-6.9 6.612-6.9s6.588 2.71 6.588 6.876v1.79c0 4.188-2.744 6.9-6.612 6.9s-6.596-2.833-6.596-6.877l.008.015zm10.977 0V33.37c0-3.21-1.7-5.144-4.364-5.144-2.664 0-4.39 1.99-4.39 5.112v1.79c0 3.088 1.646 5.086 4.39 5.086s4.357-2.006 4.357-5.095l.008.015zm10.834 11.788c-4.012 0-5.834-1.846-6.155-4.3h2.198c.29 1.676 1.605 2.487 3.932 2.487 2.656 0 4.3-1.3 4.3-4.3V38.64c-.97 1.656-2.734 2.684-4.653 2.712-3.523 0-6.01-2.568-6.01-6.5v-1.7c0-3.845 2.512-6.7 6.18-6.7 1.863-.085 3.608.916 4.477 2.567V26.68h2.167v14.195c-.007 4.092-2.63 6.026-6.443 6.026l.007.023zm4.3-12.245V33.12c0-3.088-1.604-4.878-4.244-4.878s-4.213 1.91-4.213 4.815v1.733c0 3.065 1.765 4.71 4.076 4.71 2.528.008 4.373-1.757 4.373-4.847l.01.025zm10.858 2.985l3.844-10.977h2.255L258.793 46.7h-2.2L259 40.28l-5.344-13.64h2.31l4.206 11.023z"
     fill="#00D700"
     id="path8" />
</svg>
